<svg width="30" height="30" viewBox="0 0 30 30" fill="none" xmlns="http://www.w3.org/2000/svg">
<g clip-path="url(#clip0)">
<path d="M29.8591 1.42562C29.7688 1.33316 29.6439 1.28224 29.5146 1.28482C29.1422 1.28905 20.3353 1.43853 15.9306 5.84223C15.3736 6.40401 14.884 7.02915 14.4722 7.70499C14.3438 7.56184 14.2117 7.42128 14.0752 7.28353C9.66911 2.87889 0.858897 2.73129 0.486956 2.72519C0.357186 2.72237 0.232111 2.77329 0.141296 2.86599C0.0495425 2.95751 -0.00137954 3.08235 2.84402e-05 3.21188C0.00448705 3.58429 0.153968 12.3945 4.55837 16.7991C7.70544 19.9462 12.5843 20.4256 15.2689 20.4256C16.0513 20.4256 16.6419 20.3853 16.951 20.3581L18.9843 22.3914C19.173 22.5735 19.4727 22.5709 19.658 22.3855C19.8434 22.2002 19.846 21.9003 19.6639 21.7118L17.6305 19.6785C17.6474 19.4823 17.6695 19.1763 17.6838 18.7797C20.0692 18.4554 23.2106 17.5907 25.4406 15.3555C29.8462 10.9494 29.9952 2.14346 29.9999 1.77011C30.0013 1.64104 29.9506 1.51691 29.8591 1.42562V1.42562ZM12.8718 14.9171L13.1928 11.4056C13.217 11.1412 13.0222 10.9072 12.7578 10.883C12.4935 10.8589 12.2596 11.0536 12.2354 11.3181L11.9874 14.0329L10.834 12.8796L11.1559 9.36594C11.1801 9.10053 10.9844 8.86587 10.719 8.8417C10.4536 8.81776 10.2189 9.01347 10.1948 9.27888L9.94695 11.9937L8.45214 10.4996L8.77316 6.98738C8.79733 6.72315 8.60233 6.48919 8.3381 6.46526C8.07363 6.44132 7.83991 6.63609 7.81597 6.90056L7.56746 9.61491L4.89629 6.94374C4.77567 6.81866 4.59709 6.76868 4.42884 6.81256C4.26082 6.85668 4.12964 6.98785 4.08576 7.15587C4.04164 7.32389 4.09186 7.50271 4.2167 7.62332L6.88788 10.2945L4.17352 10.5428C3.90812 10.5547 3.70255 10.7793 3.71429 11.0447C3.72602 11.3104 3.95083 11.5159 4.21623 11.504H4.26058L7.77256 11.1829L9.2669 12.6777L6.55395 12.9199C6.28855 12.9319 6.08298 13.1567 6.09495 13.4221C6.10692 13.6875 6.33172 13.8931 6.59713 13.8811H6.64078L10.1535 13.5601L11.3068 14.7135L8.592 14.9615C8.3266 14.9735 8.12127 15.1983 8.133 15.4637C8.14497 15.7291 8.37001 15.9346 8.63542 15.9227H8.67953L12.1913 15.6017L16.036 19.4464C13.7959 19.5189 8.43548 19.3222 5.23655 16.1231C1.68843 12.5696 1.08183 5.63079 0.980923 3.70538C2.90563 3.80581 9.84112 4.41007 13.3942 7.96359C16.5929 11.1623 16.789 16.5229 16.7175 18.7628L12.8718 14.9171ZM24.7624 14.6768C22.7619 16.6818 19.9134 17.4893 17.6979 17.8075C17.6902 16.6527 17.5902 15.5005 17.3989 14.3617H17.4036C17.531 14.3617 17.6533 14.311 17.7434 14.2209L17.8094 14.155L21.3211 14.476H21.3652C21.6306 14.4879 21.8554 14.2824 21.8674 14.017C21.8794 13.7516 21.6738 13.5268 21.4084 13.5148L18.6936 13.2668L19.8469 12.1134L23.3631 12.4393H23.4068C23.6722 12.4513 23.897 12.2457 23.909 11.9803C23.9209 11.7149 23.7154 11.4901 23.45 11.4781L20.7351 11.2301L22.2293 9.73553L25.7415 10.0566H25.7858C26.0512 10.0683 26.2758 9.86272 26.2878 9.59731C26.2995 9.33191 26.0939 9.1071 25.8285 9.09537L23.1142 8.84686L25.7851 6.17568C25.9102 6.05507 25.9602 5.87649 25.9163 5.70823C25.8724 5.54021 25.741 5.40904 25.573 5.36515C25.405 5.32104 25.2264 5.37126 25.1058 5.4961L22.4346 8.16727L22.1861 5.45292C22.1621 5.18845 21.9282 4.99368 21.6639 5.01785C21.3995 5.04179 21.2047 5.27551 21.2286 5.53998L21.5497 9.05196L20.0551 10.5463L19.8066 7.8371C19.7826 7.5717 19.548 7.37599 19.2826 7.39992C19.0172 7.42409 18.8215 7.65876 18.8454 7.92416L19.1664 11.4368L18.013 12.5902L17.765 9.87539C17.7411 9.61092 17.5071 9.41615 17.2426 9.44032C16.9784 9.46449 16.7836 9.69845 16.8078 9.96269L17.0706 12.8366C16.6879 11.2874 16.0238 9.82118 15.1117 8.51129C15.5195 7.78383 16.0226 7.1141 16.6084 6.5204C20.1574 2.97159 27.0938 2.36662 29.0197 2.26572C28.919 4.19043 28.3131 11.1233 24.7624 14.6759V14.6768Z" fill="white"/>
<path d="M11.6361 24.4542C11.9015 24.4542 12.1167 24.239 12.1167 23.9736C12.1167 23.7082 11.9015 23.493 11.6361 23.493H8.75256C8.48716 23.493 8.27197 23.7082 8.27197 23.9736V28.2989C8.27197 28.5643 8.48716 28.7795 8.75256 28.7795H11.6361C11.9015 28.7795 12.1167 28.5643 12.1167 28.2989C12.1167 28.0335 11.9015 27.8183 11.6361 27.8183H9.23316V26.3765H10.1943C10.4597 26.3765 10.6749 26.1613 10.6749 25.8959C10.6749 25.6305 10.4597 25.4153 10.1943 25.4153H9.23316V24.4542H11.6361Z" fill="white"/>
<path d="M16.4428 24.4542C16.7082 24.4542 16.9234 24.239 16.9234 23.9736C16.9234 23.7082 16.7082 23.493 16.4428 23.493H13.5592C13.2938 23.493 13.0786 23.7082 13.0786 23.9736V28.2989C13.0786 28.5643 13.2938 28.7795 13.5592 28.7795H16.4428C16.7082 28.7795 16.9234 28.5643 16.9234 28.2989C16.9234 28.0335 16.7082 27.8183 16.4428 27.8183H14.0398V24.4542H16.4428Z" fill="white"/>
<path d="M21.2484 23.493H18.3649C18.0995 23.493 17.8843 23.7082 17.8843 23.9736V28.2989C17.8843 28.5643 18.0995 28.7795 18.3649 28.7795H21.2484C21.5138 28.7795 21.729 28.5643 21.729 28.2989V23.9736C21.729 23.7082 21.5138 23.493 21.2484 23.493ZM20.7678 27.8183H18.8455V24.4542H20.7678V27.8183Z" fill="white"/>
</g>
<defs>
<clipPath id="clip0">
<rect width="30" height="30" fill="white"/>
</clipPath>
</defs>
</svg>
