<svg width="41" height="39" viewBox="0 0 41 39" fill="none" xmlns="http://www.w3.org/2000/svg">
<path d="M38.8443 20.6827C37.1743 18.3688 33.4281 16.0034 25.056 17.842L22.9194 26.0369C24.6083 27.7723 25.483 30.1327 26.2542 32.2141C27.103 34.5055 27.9052 36.6696 29.7284 37.7284C30.4016 38.1106 31.1126 38.2965 31.8409 38.2965C34.0119 38.2965 36.3205 36.6437 38.1437 33.6396C40.4075 29.8468 41.5025 24.3704 38.8443 20.6827Z" fill="#C4C4C4"/>
<path d="M30.9524 5.23993C30.9524 7.32006 29.4717 9.11824 27.9202 10.9871C26.5451 12.6795 24.9584 14.5482 24.2885 16.8046L20.3748 17.5451L15.3682 18.4619C9.72677 11.8685 10.5026 7.42595 12.1949 4.85208C13.8521 2.27809 17.0605 0.726719 20.3748 0.232983C22.5609 -0.154861 24.8174 -0.0489677 26.651 0.479792C29.401 1.29097 30.9524 3.01864 30.9524 5.23993Z" fill="#C4C4C4"/>
<path d="M14.938 20.5381C12.8203 20.8722 10.634 20.5003 8.70227 20.1749C6.29376 19.7616 4.01606 19.3794 2.20142 20.4263C0.280068 21.535 -0.429216 23.7731 0.254329 26.5638C1.40952 31.2673 6.23864 36.6593 11.3226 36.8762C11.4344 36.8796 11.5463 36.8832 11.66 36.8832C14.7244 36.8832 18.8132 35.0876 21.5627 26.9357L14.938 20.5381Z" fill="#C4C4C4"/>
<path d="M30.9526 5.23993C30.9526 7.32006 29.4718 9.11825 27.9203 10.9871C26.5452 12.6795 24.9586 14.5482 24.2887 16.8046L20.375 17.5451V0.233105C22.561 -0.154739 24.8176 -0.0488456 26.6511 0.479914C29.4012 1.29098 30.9526 3.01864 30.9526 5.23993Z" fill="#C4C4C4"/>
<path d="M20.3749 14.0546C16.4966 14.0546 13.3232 17.2277 13.3232 21.1063C13.3232 24.9846 16.4966 28.158 20.3749 28.158C24.2533 28.158 27.4266 24.9846 27.4266 21.1063C27.4266 17.2277 24.2533 14.0546 20.3749 14.0546Z" fill="#C4C4C4"/>
<path d="M27.4267 21.1063C27.4267 24.9846 24.2533 28.158 20.375 28.158V14.0546C24.2533 14.0546 27.4267 17.2277 27.4267 21.1063Z" fill="#C4C4C4"/>
</svg>
