<svg width="40" height="38" viewBox="0 0 40 38" fill="none" xmlns="http://www.w3.org/2000/svg">
<path d="M38.4604 20.4783C36.8069 18.1873 33.0977 15.8453 24.8083 17.6657L22.6929 25.7796C24.3651 27.4979 25.2311 29.8349 25.9947 31.8958C26.8351 34.1646 27.6294 36.3072 29.4346 37.3556C30.1011 37.734 30.805 37.9181 31.5262 37.9181C33.6757 37.9181 35.9615 36.2816 37.7667 33.3072C40.0081 29.5519 41.0923 24.1296 38.4604 20.4783Z" fill="#4392F1"/>
<path d="M30.6464 5.18814C30.6464 7.24772 29.1803 9.02813 27.6441 10.8785C26.2826 12.5542 24.7117 14.4044 24.0484 16.6385L20.1733 17.3718L15.2162 18.2794C9.6305 11.7512 10.3986 7.35257 12.0742 4.80413C13.7151 2.25558 16.8918 0.719537 20.1733 0.23068C22.3378 -0.153331 24.572 -0.0484837 26.3875 0.475051C29.1103 1.27822 30.6464 2.98881 30.6464 5.18814Z" fill="#4392F1"/>
<path d="M14.7903 20.3352C12.6936 20.6659 10.5289 20.2977 8.61627 19.9755C6.23156 19.5663 3.97637 19.1879 2.17967 20.2244C0.2773 21.3222 -0.424974 23.5382 0.251816 26.3013C1.39559 30.9583 6.17698 36.297 11.2107 36.5118C11.3214 36.5152 11.4322 36.5187 11.5448 36.5187C14.5789 36.5187 18.6273 34.7408 21.3496 26.6695L14.7903 20.3352Z" fill="#4392F1"/>
<path d="M13.6914 20.8977C13.6914 17.3336 16.6096 14.4156 20.1734 14.4156C23.7373 14.4156 26.6554 17.3336 26.6554 20.8977C26.6554 24.4615 23.7373 27.3797 20.1734 27.3797C16.6096 27.3797 13.6914 24.4615 13.6914 20.8977Z" fill="#EAE8EF" stroke="#B9C0DA"/>
</svg>
