<svg width="30" height="30" viewBox="0 0 30 30" fill="none" xmlns="http://www.w3.org/2000/svg">
<path d="M0.980735 13.3846C1.29977 13.3846 1.55766 13.1268 1.55766 12.8077C1.55766 9.30868 4.40477 6.46156 7.90381 6.46156H21.75V11.6331L29.6538 5.88464L21.75 0.136169V5.30771H7.90381C3.76843 5.30771 0.403809 8.67233 0.403809 12.8077C0.403809 13.1268 0.661696 13.3846 0.980735 13.3846ZM22.9038 2.40232L27.6923 5.88464L22.9038 9.36694V2.40232Z" fill="white"/>
<path d="M28.6731 16.2692C28.354 16.2692 28.0961 16.5271 28.0961 16.8461C28.0961 20.3452 25.249 23.1923 21.75 23.1923H7.90384V18.0208L0 23.7692L7.90384 29.5177V24.3461H21.75C25.8854 24.3461 29.25 20.9815 29.25 16.8461C29.25 16.5271 28.9921 16.2692 28.6731 16.2692ZM6.75 27.2515L1.96154 23.7692L6.75 20.2869V27.2515Z" fill="white"/>
<path d="M18.1165 17.0463H13.9924L13.0662 19.6154H11.7275L15.4866 9.77161H16.6224L20.3881 19.6154H19.0562L18.1165 17.0463ZM14.3846 15.978H17.7312L16.0545 11.3739L14.3846 15.978Z" fill="white"/>
</svg>
