<svg width="26" height="29" viewBox="0 0 26 29" fill="none" xmlns="http://www.w3.org/2000/svg">
<path d="M24.8856 20.3982L21.94 18.6976L24.4926 17.1925C24.9634 16.9149 25.12 16.3082 24.8424 15.8374C24.5648 15.3667 23.9582 15.2101 23.4873 15.4876L19.9711 17.5609L14.6695 14.4999L19.9702 11.4395L23.4874 13.5126C23.6451 13.6056 23.8182 13.6497 23.989 13.6497C24.3278 13.6497 24.6578 13.4755 24.8424 13.1624C25.1199 12.6916 24.9631 12.0849 24.4923 11.8072L21.9394 10.3026L24.8856 8.60166C25.3589 8.32839 25.521 7.72314 25.2478 7.24983C24.9745 6.7764 24.3692 6.61423 23.8959 6.88763L20.9504 8.58833L20.9236 5.62461C20.9188 5.07808 20.4704 4.63644 19.9252 4.64396C19.3786 4.64885 18.9395 5.09589 18.9445 5.64243L18.9813 9.72508L13.68 12.7859V6.66477L17.2343 4.65597C17.7101 4.38706 17.8778 3.78339 17.6089 3.30745C17.34 2.83164 16.7362 2.6638 16.2604 2.93284L13.68 4.39128V0.989621C13.68 0.443086 13.2369 0 12.6904 0C12.1438 0 11.7008 0.443086 11.7008 0.989621V4.39128L9.12036 2.93297C8.64428 2.66393 8.04088 2.83164 7.77183 3.30758C7.50292 3.78339 7.67063 4.38719 8.14644 4.6561L11.7006 6.6649V12.7859L6.39929 9.72508L6.43611 5.64243C6.44112 5.09589 6.00199 4.64885 5.45546 4.64396C5.45242 4.64396 5.44952 4.64396 5.44635 4.64396C4.90404 4.64396 4.46188 5.08111 4.457 5.62474L4.43021 8.58833L1.4847 6.88763C1.0114 6.61423 0.406146 6.77653 0.132878 7.24983C-0.140389 7.72314 0.0217766 8.32839 0.49508 8.60166L3.44112 10.3026L0.887762 11.8075C0.416966 12.085 0.26021 12.6917 0.537699 13.1626C0.722297 13.4757 1.0523 13.6499 1.39128 13.6499C1.56202 13.6499 1.73501 13.6057 1.89282 13.5128L5.41046 11.4398L10.7113 14.5002L5.40954 17.5612L1.89282 15.4874C1.42229 15.21 0.815321 15.3664 0.537699 15.8372C0.260078 16.308 0.416702 16.9147 0.887498 17.1922L3.44046 18.6975L0.494948 20.3981C0.0216447 20.6713 -0.140521 21.2766 0.132746 21.7499C0.316024 22.0674 0.648669 22.2448 0.990682 22.2448C1.15852 22.2448 1.32874 22.2021 1.48457 22.1121L4.43008 20.4114L4.45686 23.3753C4.46175 23.9188 4.90391 24.356 5.44622 24.356C5.44926 24.356 5.45229 24.356 5.45533 24.3559C6.00186 24.351 6.44099 23.904 6.43598 23.3574L6.39916 19.2747L11.7006 16.2138V22.3351L8.14644 24.3439C7.67063 24.6128 7.50292 25.2165 7.77183 25.6924C7.95379 26.0144 8.28907 26.1953 8.63425 26.1953C8.79919 26.1953 8.9665 26.154 9.12036 26.067L11.7008 24.6087V28.0104C11.7008 28.5569 12.1438 29 12.6904 29C13.2369 29 13.68 28.5569 13.68 28.0104V24.6087L16.2604 26.067C16.4143 26.154 16.5814 26.1953 16.7465 26.1953C17.0917 26.1953 17.427 26.0144 17.6089 25.6924C17.8778 25.2166 17.7101 24.6128 17.2343 24.3439L13.68 22.3351V16.214L18.9813 19.2747L18.9436 23.3573C18.9385 23.9038 19.3775 24.351 19.924 24.356C19.9272 24.3562 19.9302 24.3562 19.9334 24.3562C20.4755 24.3562 20.9177 23.919 20.9227 23.3757L20.9502 20.4114L23.8961 22.1122C24.0519 22.2022 24.2221 22.245 24.39 22.245C24.732 22.245 25.0646 22.0674 25.2479 21.75C25.5212 21.2767 25.359 20.6715 24.8856 20.3982Z" fill="white"/>
</svg>
