<svg width="30" height="30" viewBox="0 0 30 30" fill="none" xmlns="http://www.w3.org/2000/svg">
<path d="M15.0002 21.5349C18.6048 21.5349 21.5118 18.6047 21.5118 15.0233C21.5118 11.4419 18.5815 8.51166 15.0002 8.51166C11.4188 8.51166 8.48853 11.4419 8.48853 15.0233C8.48853 18.6047 11.3955 21.5349 15.0002 21.5349ZM15.0002 10.3954C17.5583 10.3954 19.6281 12.4651 19.6281 15.0233C19.6281 17.5814 17.5583 19.6512 15.0002 19.6512C12.442 19.6512 10.3722 17.5814 10.3722 15.0233C10.3722 12.4651 12.442 10.3954 15.0002 10.3954Z" fill="white"/>
<path d="M15.9536 5.4884V2.4884C15.9536 1.95352 15.535 1.53491 15.0001 1.53491C14.4652 1.53491 14.0466 1.95352 14.0466 2.4884V5.4884C14.0466 6.02328 14.4652 6.44189 15.0001 6.44189C15.535 6.44189 15.9536 6.02328 15.9536 5.4884Z" fill="white"/>
<path d="M14.0466 24.5582V27.5582C14.0466 28.093 14.4652 28.5116 15.0001 28.5116C15.535 28.5116 15.9536 28.093 15.9536 27.5582V24.5582C15.9536 24.0233 15.535 23.6047 15.0001 23.6047C14.4652 23.6047 14.0466 24.0233 14.0466 24.5582Z" fill="white"/>
<path d="M22.4187 8.95354L24.535 6.83726C24.907 6.46516 24.907 5.86051 24.535 5.48842C24.1629 5.11633 23.5582 5.11633 23.1861 5.48842L21.0698 7.6047C20.6977 7.97679 20.6977 8.58145 21.0698 8.95354C21.2559 9.13959 21.4884 9.23261 21.7443 9.23261C22.0001 9.23261 22.2326 9.13959 22.4187 8.95354V8.95354Z" fill="white"/>
<path d="M5.46535 24.5582C5.6514 24.7442 5.88395 24.8372 6.13977 24.8372C6.37233 24.8372 6.62814 24.7442 6.81419 24.5582L8.93046 22.4419C9.30256 22.0698 9.30256 21.4651 8.93046 21.093C8.55837 20.7209 7.95372 20.7209 7.58163 21.093L5.46535 23.2093C5.09326 23.5814 5.09326 24.1861 5.46535 24.5582Z" fill="white"/>
<path d="M28.4885 15.0233C28.4885 14.4884 28.0699 14.0698 27.535 14.0698H24.535C24.0001 14.0698 23.5815 14.4884 23.5815 15.0233C23.5815 15.5581 24.0001 15.9767 24.535 15.9767H27.535C28.0467 15.9767 28.4885 15.5581 28.4885 15.0233Z" fill="white"/>
<path d="M2.46521 15.9767H5.46521C6.00009 15.9767 6.4187 15.5581 6.4187 15.0233C6.4187 14.4884 6.00009 14.0698 5.46521 14.0698H2.46521C1.93032 14.0698 1.51172 14.4884 1.51172 15.0233C1.51172 15.5581 1.95358 15.9767 2.46521 15.9767Z" fill="white"/>
<path d="M23.8605 24.8372C24.0931 24.8372 24.3489 24.7442 24.535 24.5582C24.907 24.1861 24.907 23.5814 24.535 23.2093L22.4187 21.093C22.0466 20.7209 21.4419 20.7209 21.0698 21.093C20.6977 21.4651 20.6977 22.0698 21.0698 22.4419L23.1861 24.5582C23.3722 24.7442 23.628 24.8372 23.8605 24.8372V24.8372Z" fill="white"/>
<path d="M8.93046 8.95354C9.30256 8.58145 9.30256 7.97679 8.93046 7.6047L6.81419 5.48842C6.44209 5.11633 5.83744 5.11633 5.46535 5.48842C5.09326 5.86051 5.09326 6.46516 5.46535 6.83726L7.58163 8.95354C7.76767 9.13959 8.00023 9.23261 8.25605 9.23261C8.51186 9.23261 8.74442 9.13959 8.93046 8.95354V8.95354Z" fill="white"/>
</svg>
