<svg width="30" height="30" viewBox="0 0 30 30" fill="none" xmlns="http://www.w3.org/2000/svg">
<g clip-path="url(#clip0)">
<path d="M0.408939 15.8895C2.18363 17.4117 4.19503 19.1371 8.08572 19.1371C11.9765 19.137 13.988 17.4117 15.7628 15.8895C17.4411 14.45 18.8906 13.2067 21.914 13.2067C24.9373 13.2067 26.3868 14.45 28.0651 15.8895C28.5564 16.3108 29.2962 16.2542 29.7176 15.763C30.1389 15.2717 30.0823 14.5319 29.591 14.1105C27.8163 12.5883 25.8048 10.8629 21.914 10.8629C18.0232 10.8629 16.0116 12.5883 14.2369 14.1105C12.5585 15.5501 11.109 16.7934 8.08572 16.7934C5.06245 16.7934 3.61314 15.5501 1.9349 14.1105C1.44365 13.6892 0.703841 13.7457 0.282435 14.237C-0.138971 14.7283 -0.0823112 15.4681 0.408939 15.8895Z" fill="white"/>
<path d="M0.408939 9.47971C2.18357 11.002 4.19497 12.7273 8.08572 12.7273C11.9765 12.7273 13.988 11.002 15.7628 9.47971C17.4411 8.04018 18.8906 6.79688 21.914 6.79688C24.9372 6.79688 26.3867 8.04012 28.0651 9.47971C28.5564 9.90117 29.2962 9.8444 29.7175 9.35309C30.1389 8.86184 30.0822 8.12191 29.5909 7.70062C27.8162 6.17836 25.8046 4.45312 21.914 4.45312C18.0232 4.45312 16.0116 6.17848 14.2369 7.70074C12.5585 9.14027 11.109 10.3836 8.08572 10.3836C5.06251 10.3836 3.61314 9.14033 1.9349 7.70074C1.44365 7.27934 0.703783 7.33594 0.282435 7.82725C-0.138971 8.3185 -0.0823112 9.05836 0.408939 9.47971Z" fill="white"/>
<path d="M29.591 20.5203C27.8162 18.9981 25.8047 17.2727 21.9139 17.2727C18.0231 17.2727 16.0116 18.9981 14.2368 20.5203C12.5585 21.9599 11.109 23.2032 8.08566 23.2032C5.06258 23.2032 3.61314 21.9599 1.9349 20.5204L1.93479 20.5203C1.44354 20.0991 0.703792 20.1557 0.282386 20.6469C-0.138961 21.1381 -0.0823014 21.878 0.408948 22.2993C2.18363 23.8216 4.1951 25.5469 8.08566 25.5469C11.9765 25.5469 13.988 23.8216 15.7627 22.2993C17.4411 20.8598 18.8906 19.6165 21.9139 19.6165C24.9373 19.6165 26.3868 20.8598 28.0651 22.2993C28.5564 22.7206 29.2962 22.664 29.7175 22.1728C30.1389 21.6815 30.0823 20.9417 29.591 20.5203Z" fill="white"/>
</g>
<defs>
<clipPath id="clip0">
<rect width="30" height="30" fill="white"/>
</clipPath>
</defs>
</svg>
