<svg width="62" height="86" viewBox="0 0 62 86" fill="none" xmlns="http://www.w3.org/2000/svg">
<path d="M10.396 33.1722C10.396 21.5563 19.8968 12.1604 31.5518 12.3299C42.8034 12.4943 51.9635 21.6934 52.0838 32.9451C52.1346 37.7615 50.5534 42.2053 47.857 45.7575C44.0539 50.7723 41.7117 56.7192 41.2287 62.9526C41.166 63.7491 41.1355 64.5507 41.1355 65.3557L41.1355 70.2859L21.3441 70.2859L21.3441 65.6456C21.3441 64.7457 21.3085 63.8474 21.2356 62.9526C20.7391 56.7769 18.5341 50.8248 14.7312 45.8981C12.0129 42.3782 10.396 37.9633 10.396 33.1722Z" fill="url(#paint0_radial)"/>
<path d="M21.2359 62.9526L41.229 62.9526C41.1662 63.7491 41.1358 64.5507 41.1358 65.3557L41.1358 70.2859L21.3443 70.2859L21.3443 65.6456C21.3443 64.7457 21.3087 63.8474 21.2359 62.9526Z" fill="#FE9700"/>
<path d="M10.3959 33.1722C10.3959 24.3086 15.9275 16.7379 23.7285 13.7231C17.2952 17.2702 12.938 24.1187 12.938 31.9859C12.938 36.7771 14.5549 41.1919 17.2732 44.712C21.6271 50.3521 23.8862 57.3329 23.8862 64.4594L23.8862 70.2859L21.3441 70.2859L21.3441 65.6456C21.3441 58.5191 19.085 51.5383 14.731 45.8982C12.0127 42.3782 10.3959 37.9633 10.3959 33.1722Z" fill="url(#paint1_linear)"/>
<path d="M22.3123 65.2428L41.7592 65.2428C42.6887 65.2428 43.3679 66.1938 43.1351 67.1687L42.6522 69.1907L39.7863 81.1958L39.1197 83.9887C38.9582 84.6686 38.3929 85.144 37.7452 85.144L26.3275 85.144C25.6799 85.144 25.1146 84.6686 24.9516 83.9888L24.285 81.196L21.4207 69.1908L20.9378 67.1688C20.705 66.1938 21.3844 65.2428 22.3123 65.2428Z" fill="#B9C0DA"/>
<path d="M19.9106 69.3929L42.6357 69.3929L39.5682 81.2461L22.9765 81.2461L19.9106 69.3929Z" fill="#EBE8EF"/>
<path d="M19.7246 71.935L42.8205 71.9351C43.7353 71.9351 44.4771 72.6766 44.4771 73.5916L44.4771 77.0475C44.4771 77.9624 43.7355 78.7041 42.8205 78.7041L19.7244 78.7041C18.8096 78.7041 18.0679 77.9625 18.0679 77.0475L18.0679 73.5916C18.0681 72.6768 18.8096 71.935 19.7246 71.935Z" fill="#B9C0DA"/>
<path d="M36.102 18.7628C36.2206 18.7628 36.3411 18.779 36.4609 18.8134C44.8452 21.2136 46.4047 29.6522 46.4668 30.0103C46.5901 30.7187 46.1157 31.3925 45.4075 31.5158C44.7005 31.6402 44.0271 31.1661 43.9025 30.4594C43.8481 30.1577 42.5303 23.259 35.7442 21.3163C35.0531 21.1185 34.653 20.3978 34.8511 19.7066C35.0147 19.1353 35.5359 18.7628 36.102 18.7628Z" fill="#F4D85B"/>
<path d="M31.2403 0.144094C31.9593 0.144094 32.542 0.726781 32.542 1.44595L32.542 8.90286C32.542 9.62185 31.9593 10.2047 31.2403 10.2047C30.5213 10.2047 29.9385 9.62203 29.9385 8.90286L29.9385 1.44595C29.9385 0.72678 30.5213 0.144094 31.2403 0.144094Z" fill="#FFCC9D"/>
<path d="M51.6718 5.81183C52.0048 5.81183 52.3381 5.9389 52.5923 6.19304C53.1007 6.70151 53.1007 7.52568 52.5924 8.03414L47.3195 13.3071C46.8111 13.8155 45.9867 13.8153 45.4786 13.3072C44.9701 12.7988 44.9701 11.9746 45.4784 11.4661L50.7513 6.19322C51.0055 5.9389 51.3386 5.81183 51.6718 5.81183Z" fill="#FFCC9D"/>
<path d="M60.4647 18.0631C60.7864 18.1493 61.0754 18.3583 61.2552 18.6696C61.6147 19.2923 61.4014 20.0884 60.7788 20.448L54.3208 24.1765C53.6981 24.536 52.9019 24.3225 52.5426 23.7002C52.1831 23.0774 52.3964 22.2813 53.0189 21.9218L59.4769 18.1933C59.7882 18.0134 60.1429 17.9769 60.4647 18.0631Z" fill="#FFCC9D"/>
<path d="M10.8087 5.81176C11.1419 5.81176 11.4751 5.93883 11.7294 6.19315L17.0021 11.4659C17.5104 11.9743 17.5104 12.7985 17.0019 13.307C16.4938 13.8153 15.6695 13.8151 15.161 13.3068L9.88811 8.0339C9.37982 7.52544 9.37981 6.70127 9.88827 6.19281C10.1424 5.93883 10.4758 5.81176 10.8087 5.81176Z" fill="#FFCC9D"/>
<path d="M2.02497 18.0631C2.34678 17.9769 2.70147 18.0134 3.01294 18.1932L9.4707 21.9216C10.0933 22.2812 10.3066 23.0773 9.94705 23.7C9.5878 24.3225 8.7915 24.5357 8.16881 24.1763L1.71084 20.4478C1.08827 20.0883 0.874955 19.2922 1.23449 18.6694C1.41424 18.3583 1.70333 18.1493 2.02497 18.0631Z" fill="#FFCC9D"/>
<defs>
<radialGradient id="paint0_radial" cx="0" cy="0" r="1" gradientUnits="userSpaceOnUse" gradientTransform="translate(31.2406 64.0487) rotate(-90) scale(75.2266 54.11)">
<stop stop-color="#DC483A"/>
<stop offset="1" stop-color="#FEC007" stop-opacity="0"/>
</radialGradient>
<linearGradient id="paint1_linear" x1="17.141" y1="70.2859" x2="17.141" y2="13.7231" gradientUnits="userSpaceOnUse">
<stop stop-color="#FE9700"/>
<stop offset="1" stop-color="#FE9700" stop-opacity="0"/>
</linearGradient>
</defs>
</svg>
