<svg width="34" height="34" viewBox="0 0 34 34" fill="none" xmlns="http://www.w3.org/2000/svg">
<path d="M15.0644 22C14.5271 21.998 14.0131 21.7829 13.635 21.4016L10.5938 18.3589C9.80206 17.5668 9.80206 16.2808 10.5938 15.4887C11.3855 14.6967 12.671 14.6966 13.4627 15.4887L15.1759 17.2027L20.8427 12.3446C21.7724 11.7198 23.0324 11.9683 23.6559 12.8983C24.1739 13.6712 24.1009 14.6965 23.4785 15.3872L16.3822 21.4726C16.0204 21.8012 15.5531 21.9888 15.0644 22Z" fill="white"/>
<path d="M17 34C7.61102 34 0 26.389 0 17C0 7.61102 7.61102 0 17 0C26.389 0 34 7.61102 34 17C34 26.389 26.389 34 17 34ZM17 3.99998C9.82002 3.99998 3.99998 9.82002 3.99998 17C3.99998 24.18 9.82002 30 17 30C24.18 30 30 24.18 30 17C30 9.82002 24.18 3.99998 17 3.99998Z" fill="white"/>
</svg>
